# File created by Blade
# Date/Time:  Wed Apr 08 14:10:43 2015
#---------------------------------------------------------
:version 1.10
:name HOM
:units
  mass 1.0
  length 1.000000
  angle deg
:documentation
     Acclaim Skeleton File
:root
   axis xyz
   order TX TY TZ RX RY RZ
   position 0.000000 0.000000 0.000000
   orientation 0 0 0
:bonedata
   begin
      id 1
      name Spine_dum
      direction 0.000000 1.000000 0.000000
      length 4.885285
      axis 0.0 0.0 0.0 xyz
   end
   begin
      id 2
      name LeftUpLeg_dum
      direction 1.000000 0.000000 0.000000
      length 2.672193
      axis 0.0 0.0 0.0 xyz
   end
   begin
      id 3
      name RightUpLeg_dum
      direction -1.000000 0.000000 0.000000
      length 2.672193
      axis 0.0 0.0 0.0 xyz
   end
   begin
      id 4
      name Spine
      direction 0.000000 1.000000 0.000000
      length 0.000000
      axis 0.0 0.0 0.0 xyz
      dof rx ry rz
   end
   begin
      id 5
      name Spine_dum1
      direction 0.000000 1.000000 0.000000
      length 16.494159
      axis 0.0 0.0 0.0 xyz
   end
   begin
      id 6
      name Spine_dum2
      direction 0.000000 1.000000 0.000000
      length 10.663448
      axis 0.0 0.0 0.0 xyz
   end
   begin
      id 7
      name Spine_dum3
      direction 0.000000 1.000000 0.000000
      length 10.663448
      axis 0.0 0.0 0.0 xyz
   end
   begin
      id 8
      name Head
      direction 0.000000 1.000000 0.000000
      length 4.527550
      axis 0.0 0.0 0.0 xyz
      dof rx ry rz
   end
   begin
      id 9
      name LeftShoulder
      direction 1.000000 0.000000 0.000000
      length 7.531907
      axis 0.0 0.0 -90.0 xyz
      dof rx ry rz
   end
   begin
      id 10
      name LeftArm
      direction 1.000000 0.000000 0.000000
      length 10.229199
      axis 0.0 0.0 -90.0 xyz
      dof rx ry rz
   end
   begin
      id 11
      name LeftForeArm
      direction 1.000000 0.000000 0.000000
      length 8.673495
      axis 0.0 0.0 -90.0 xyz
      dof ry rz rx
   end
   begin
      id 12
      name LeftHand
      direction 0.000000 0.000000 0.000000
      length 0.000000
      axis 0.0 0.0 -90.0 xyz
      dof rx ry rz
   end
   begin
      id 13
      name LeftHand_dum1
      direction 0.000000 0.000000 0.000000
      length 0.000000
      axis 0.0 0.0 -90.0 xyz
   end
   begin
      id 14
      name LeftHand_dum2
      direction 1.000000 0.000000 0.000000
      length 3.937000
      axis 0.0 0.0 -90.0 xyz
   end
   begin
      id 15
      name LeftHandThumb1
      direction 0.000000 0.000000 1.000000
      length 3.937000
      axis 0.0 0.0 -90.0 xyz
      dof rx rz ry
   end
   begin
      id 16
      name RightShoulder
      direction -1.000000 0.000000 0.000000
      length 7.531907
      axis 0.0 0.0 90.0 xyz
      dof rx ry rz
   end
   begin
      id 17
      name RightArm
      direction -1.000000 0.000000 0.000000
      length 10.229199
      axis 0.0 0.0 90.0 xyz
      dof rx ry rz
   end
   begin
      id 18
      name RightForeArm
      direction -1.000000 0.000000 0.000000
      length 8.673495
      axis 0.0 0.0 90.0 xyz
      dof ry rz rx
   end
   begin
      id 19
      name RightHand
      direction 0.000000 0.000000 0.000000
      length 0.000000
      axis 0.0 0.0 90.0 xyz
      dof rx ry rz
   end
   begin
      id 20
      name RightHand_dum1
      direction 0.000000 0.000000 0.000000
      length 0.000000
      axis 0.0 0.0 90.0 xyz
   end
   begin
      id 21
      name RightHand_dum2
      direction -1.000000 0.000000 0.000000
      length 3.937000
      axis 0.0 0.0 90.0 xyz
   end
   begin
      id 22
      name RightHandThumb1
      direction 0.000000 0.000000 1.000000
      length 3.937000
      axis 0.0 0.0 90.0 xyz
      dof rx rz ry
   end
   begin
      id 23
      name LeftUpLeg
      direction 0.000000 -1.000000 0.000000
      length 16.263388
      axis 0.0 0.0 0.0 xyz
      dof rx ry rz
   end
   begin
      id 24
      name LeftLeg
      direction 0.000000 -1.000000 0.000000
      length 14.328163
      axis 0.0 0.0 0.0 xyz
      dof rx ry rz
   end
   begin
      id 25
      name LeftFoot
      direction 0.000000 -0.258819 0.965926
      length 5.031290
      axis 15.0 0.0 0.0 xyz
      dof rx ry rz
   end
   begin
      id 26
      name LeftToeBase
      direction 0.000000 0.000000 1.000000
      length 2.952750
      axis 0.0 0.0 0.0 xyz
      dof rx ry rz
   end
   begin
      id 27
      name RightUpLeg
      direction 0.000000 -1.000000 0.000000
      length 16.263388
      axis 0.0 0.0 0.0 xyz
      dof rx ry rz
   end
   begin
      id 28
      name RightLeg
      direction 0.000000 -1.000000 0.000000
      length 14.328163
      axis 0.0 0.0 0.0 xyz
      dof rx ry rz
   end
   begin
      id 29
      name RightFoot
      direction 0.000000 -0.258819 0.965926
      length 5.031290
      axis 15.0 0.0 0.0 xyz
      dof rx ry rz
   end
   begin
      id 30
      name RightToeBase
      direction 0.000000 0.000000 1.000000
      length 2.952750
      axis 0.0 0.0 0.0 xyz
      dof rx ry rz
   end
:hierarchy
   begin
      root Spine_dum LeftUpLeg_dum RightUpLeg_dum
      Spine_dum Spine
      LeftUpLeg_dum LeftUpLeg
      RightUpLeg_dum RightUpLeg
      Spine Spine_dum1 Spine_dum2 Spine_dum3
      Spine_dum1 Head
      Spine_dum2 LeftShoulder
      Spine_dum3 RightShoulder
      LeftShoulder LeftArm
      LeftArm LeftForeArm
      LeftForeArm LeftHand
      LeftHand LeftHand_dum1 LeftHand_dum2
      LeftHand_dum1 LeftHandThumb1
      RightShoulder RightArm
      RightArm RightForeArm
      RightForeArm RightHand
      RightHand RightHand_dum1 RightHand_dum2
      RightHand_dum1 RightHandThumb1
      LeftUpLeg LeftLeg
      LeftLeg LeftFoot
      LeftFoot LeftToeBase
      RightUpLeg RightLeg
      RightLeg RightFoot
      RightFoot RightToeBase
   end

# File created by Blade
# Date/Time:  Wed Apr 08 14:10:35 2015
# Frame Rate: 120.000 fps
#------------------------------------------------------
:FULLY-SPECIFIED
:DEGREES
182
root 1.345021 32.846282 -19.522098 10.823236 2.993090 -4.918901
Spine -6.112529 -6.749480 1.827820
Head 19.090253 -5.959785 2.296797
LeftShoulder -13.409955 45.850169 7.605355
LeftArm 59.349672 16.498454 -66.267034
LeftForeArm -6.316711 0.000000 15.254443
LeftHand 5.914347 0.000000 -9.048294
LeftHandThumb1 -26.253704 0.000000 33.147579
RightShoulder -2.259799 -8.268280 -12.627300
RightArm 20.477641 -22.627197 83.820387
RightForeArm 2.350370 -0.000000 16.162855
RightHand 1.660553 0.000000 11.987080
RightHandThumb1 -24.326973 -0.000000 -32.862282
LeftUpLeg -11.983301 -0.444252 0.686482
LeftLeg 6.257039 -0.000000 -0.000000
LeftFoot -9.984501 9.710341 -15.447709
LeftToeBase -7.318728 -0.000000 0.000000
RightUpLeg -10.773795 3.123045 4.555549
RightLeg -3.325381 -0.000000 0.000000
RightFoot 0.524680 -16.200644 5.358707
RightToeBase -5.947067 -0.000000 0.000000
183
root 1.367007 32.846152 -19.523874 10.844554 3.040014 -4.953722
Spine -6.173433 -6.777142 1.884403
Head 19.061426 -5.936254 2.281422
LeftShoulder -13.444168 45.880237 7.560882
LeftArm 59.383307 16.544057 -66.249960
LeftForeArm -6.232649 -0.000000 15.027581
LeftHand 5.916994 -0.000000 -9.114230
LeftHandThumb1 -26.253704 0.000000 33.147579
RightShoulder -2.264601 -8.268902 -12.629087
RightArm 20.443518 -22.585441 83.859691
RightForeArm 2.448565 -0.000000 16.091102
RightHand 1.507732 -0.000000 11.521147
RightHandThumb1 -24.326973 -0.000000 -32.862282
LeftUpLeg -11.876817 -0.417128 0.682141
LeftLeg 5.981725 -0.000000 -0.000000
LeftFoot -9.893025 9.619365 -15.437554
LeftToeBase -7.245872 -0.000000 0.000000
RightUpLeg -10.765371 3.135341 4.556936
RightLeg -3.395325 -0.000000 0.000000
RightFoot 0.566057 -16.307247 5.308893
RightToeBase -5.780895 -0.000000 0.000000
184
root 1.389951 32.845492 -19.527645 10.872347 3.075410 -4.978321
Spine -6.235726 -6.760094 1.928077
Head 19.028341 -5.985597 2.270052
LeftShoulder -13.401426 45.876256 7.579180
LeftArm 59.363792 16.622413 -66.246217
LeftForeArm -6.219051 -0.000000 14.857454
LeftHand 5.817488 -0.000000 -9.141718
LeftHandThumb1 -26.253704 0.000000 33.147579
RightShoulder -2.292490 -8.246742 -12.640946
RightArm 20.351661 -22.569306 83.916853
RightForeArm 2.523173 0.000000 16.063564
RightHand 1.548921 -0.000000 11.436721
RightHandThumb1 -24.326973 -0.000000 -32.862282
LeftUpLeg -11.685576 -0.705102 0.718405
LeftLeg 5.514647 -0.000000 -0.000000
LeftFoot -9.810219 9.861976 -15.502481
LeftToeBase -7.152188 -0.000000 0.000000
RightUpLeg -10.787457 3.187276 4.534086
RightLeg -3.419175 -0.000000 0.000000
RightFoot 0.577832 -16.427316 5.299837
RightToeBase -5.660243 -0.000000 0.000000
185
root 1.414766 32.844751 -19.527842 10.880067 3.130816 -4.995506
Spine -6.284166 -6.798614 1.979300
Head 19.001606 -5.967582 2.246622
LeftShoulder -13.424236 45.864119 7.535946
LeftArm 59.327232 16.722536 -66.240656
LeftForeArm -6.165067 -0.000000 14.696900
LeftHand 5.870925 -0.000000 -9.223867
LeftHandThumb1 -26.253704 0.000000 33.147579
RightShoulder -2.279836 -8.236844 -12.659030
RightArm 20.243153 -22.484270 84.010241
RightForeArm 2.425859 0.000000 16.053650
RightHand 1.690133 0.000000 11.902091
RightHandThumb1 -24.326973 -0.000000 -32.862282
LeftUpLeg -11.554059 -0.713428 0.705401
LeftLeg 5.229163 -0.000000 -0.000000
LeftFoot -9.721572 9.720581 -15.529577
LeftToeBase -6.863582 -0.000000 0.000000
RightUpLeg -10.790886 3.170441 4.511539
RightLeg -3.427937 -0.000000 0.000000
RightFoot 0.579813 -16.478071 5.326907
RightToeBase -5.684663 -0.000000 0.000000
186
root 1.437214 32.844410 -19.527373 10.886078 3.201802 -5.030981
Spine -6.336751 -6.837287 2.049340
Head 18.975067 -5.957342 2.228993
LeftShoulder -13.465178 45.889474 7.487697
LeftArm 59.336791 16.806368 -66.246211
LeftForeArm -6.137096 0.000000 14.539861
LeftHand 5.736386 -0.000000 -9.329074
LeftHandThumb1 -26.253704 0.000000 33.147579
RightShoulder -2.283680 -8.245664 -12.656565
RightArm 20.168262 -22.422113 84.066146
RightForeArm 2.543089 -0.000000 16.017157
RightHand 1.574950 0.000000 11.456363
RightHandThumb1 -24.326973 -0.000000 -32.862282
LeftUpLeg -11.462906 -0.656779 0.702589
LeftLeg 5.027008 -0.000000 -0.000000
LeftFoot -9.665181 9.561550 -15.547052
LeftToeBase -6.794306 -0.000000 0.000000
RightUpLeg -10.785674 3.196947 4.506511
RightLeg -3.447699 -0.000000 0.000000
RightFoot 0.587782 -16.604699 5.343023
RightToeBase -5.672078 -0.000000 0.000000
187
root 1.458724 32.844089 -19.525494 10.895885 3.260580 -5.060743
Spine -6.398413 -6.855517 2.102268
Head 18.938398 -5.973833 2.224955
LeftShoulder -13.465467 45.895821 7.475435
LeftArm 59.301389 16.921035 -66.277464
LeftForeArm -6.084624 -0.000000 14.382291
LeftHand 5.731167 0.000000 -9.368611
LeftHandThumb1 -26.253704 0.000000 33.147579
RightShoulder -2.305209 -8.266556 -12.644260
RightArm 20.099556 -22.358177 84.130480
RightForeArm 2.714667 -0.000000 15.965375
RightHand 1.579685 0.000000 11.511701
RightHandThumb1 -24.326973 -0.000000 -32.862282
LeftUpLeg -11.366531 -0.638700 0.701146
LeftLeg 4.813646 -0.000000 -0.000000
LeftFoot -9.619449 9.449603 -15.608874
LeftToeBase -6.759777 -0.000000 0.000000
RightUpLeg -10.780329 3.293570 4.480815
RightLeg -3.471169 -0.000000 0.000000
RightFoot 0.591200 -16.781094 5.338062
RightToeBase -5.633444 -0.000000 0.000000
